<?xml version="1.0" encoding="UTF-8"?>
<svg id="Layer_1" data-name="Layer 1" xmlns="http://www.w3.org/2000/svg" viewBox="0 0 1571.79 1068.89">
  <defs>
    <style>
      .cls-1 {
        font-family: SpaceGrotesk-Light, 'Space Grotesk';
        font-size: 500px;
        font-variation-settings: 'wght' 300;
        font-weight: 300;
      }

      .cls-1, .cls-2 {
        fill: #f25c05;
      }

      .cls-3 {
        letter-spacing: 0em;
      }

      .cls-4 {
        letter-spacing: 0em;
      }

      .cls-5 {
        letter-spacing: 0em;
      }

      .cls-6 {
        letter-spacing: 0em;
      }

      .cls-7 {
        fill: #f2f2f2;
      }

      .cls-8 {
        letter-spacing: -.09em;
      }

      .cls-9 {
        font-family: SpaceGrotesk-Regular, 'Space Grotesk';
        font-size: 36px;
        font-variation-settings: 'wght' 400;
      }

      .cls-10 {
        letter-spacing: -.06em;
      }

      .cls-11 {
        fill: #034c8c;
      }

      .cls-12 {
        letter-spacing: -.02em;
      }

      .cls-13 {
        letter-spacing: -.02em;
      }

      .cls-14 {
        letter-spacing: -.02em;
      }

      .cls-15 {
        letter-spacing: -.03em;
      }

      .cls-16 {
        letter-spacing: -.02em;
      }

      .cls-17 {
        letter-spacing: -.02em;
      }

      .cls-18 {
        letter-spacing: -.02em;
      }

      .cls-19 {
        letter-spacing: -.02em;
      }

      .cls-20 {
        letter-spacing: -.02em;
      }

      .cls-21 {
        letter-spacing: -.02em;
      }

      .cls-22 {
        letter-spacing: -.02em;
      }

      .cls-23 {
        letter-spacing: -.02em;
      }

      .cls-24 {
        letter-spacing: -.02em;
      }

      .cls-25 {
        letter-spacing: -.02em;
      }

      .cls-26 {
        letter-spacing: -.02em;
      }

      .cls-27 {
        letter-spacing: -.01em;
      }

      .cls-28 {
        letter-spacing: -.01em;
      }

      .cls-29 {
        letter-spacing: -.01em;
      }

      .cls-30 {
        letter-spacing: -.01em;
      }

      .cls-31 {
        letter-spacing: -.02em;
      }

      .cls-32 {
        letter-spacing: -.02em;
      }

      .cls-33 {
        letter-spacing: -.01em;
      }

      .cls-34 {
        letter-spacing: -.01em;
      }

      .cls-35 {
        letter-spacing: -.03em;
      }

      .cls-36 {
        letter-spacing: -.03em;
      }

      .cls-37 {
        letter-spacing: -.03em;
      }

      .cls-38 {
        letter-spacing: -.03em;
      }

      .cls-39 {
        letter-spacing: -.03em;
      }

      .cls-40 {
        letter-spacing: -.03em;
      }

      .cls-41 {
        letter-spacing: -.03em;
      }

      .cls-42 {
        letter-spacing: 0em;
      }

      .cls-43 {
        letter-spacing: 0em;
      }

      .cls-44 {
        letter-spacing: 0em;
      }

      .cls-45 {
        letter-spacing: -.01em;
      }

      .cls-46 {
        letter-spacing: -.01em;
      }

      .cls-47 {
        letter-spacing: 0em;
      }

      .cls-48 {
        letter-spacing: 0em;
      }

      .cls-49 {
        letter-spacing: 0em;
      }

      .cls-50 {
        letter-spacing: 0em;
      }

      .cls-51 {
        letter-spacing: 0em;
      }

      .cls-52 {
        letter-spacing: 0em;
      }

      .cls-53 {
        letter-spacing: 0em;
      }

      .cls-54 {
        letter-spacing: 0em;
      }

      .cls-55 {
        letter-spacing: 0em;
      }

      .cls-56 {
        letter-spacing: 0em;
      }

      .cls-57 {
        letter-spacing: 0em;
      }
    </style>
  </defs>
  <g>
    <rect class="cls-11" x=".5" y="29.01" width="1570.79" height="1039.38"/>
    <path d="M1570.79,29.51v1038.38H1V29.51h1569.79M1571.79,28.51H0v1040.38h1571.79V28.51h0Z"/>
  </g>
  <text class="cls-9" transform="translate(105.03 266.1)"><tspan class="cls-7"><tspan class="cls-34" x="0" y="0">W</tspan><tspan x="31" y="0">e need a l</tspan><tspan class="cls-18" x="197.46" y="0">o</tspan><tspan x="218.99" y="0">t mo</tspan><tspan class="cls-17" x="298.01" y="0">r</tspan><tspan x="310.93" y="0">e </tspan><tspan class="cls-36" x="341.49" y="0">a</tspan><tspan class="cls-13" x="361.04" y="0">ff</tspan><tspan x="387.64" y="0">o</tspan><tspan class="cls-17" x="409.89" y="0">r</tspan><tspan x="422.82" y="0">dable housing</tspan><tspan class="cls-39" x="668.59" y="0">.</tspan><tspan x="676.51" y="0" xml:space="preserve"> But </tspan><tspan class="cls-13" x="757.4" y="0">f</tspan><tspan x="772.45" y="0">or dec</tspan><tspan class="cls-34" x="883.54" y="0">a</tspan><tspan x="903.74" y="0">des</tspan><tspan class="cls-39" x="967.2" y="0">,</tspan><tspan x="975.05" y="0" xml:space="preserve"> N</tspan><tspan class="cls-46" x="1008.21" y="0">e</tspan><tspan x="1029.16" y="0">w</tspan><tspan class="cls-27" x="1058" y="0"> </tspan><tspan class="cls-8" x="1066.78" y="0">Y</tspan><tspan x="1085.61" y="0">ork City h</tspan><tspan class="cls-44" x="1251.89" y="0">a</tspan><tspan class="cls-4" x="1272.45" y="0">s </tspan></tspan><tspan class="cls-7"><tspan class="cls-22" x="0" y="43.2">r</tspan><tspan x="12.92" y="43.2">elied almo</tspan><tspan class="cls-45" x="188.35" y="43.2">s</tspan><tspan x="206.93" y="43.2">t e</tspan><tspan class="cls-34" x="254.05" y="43.2">n</tspan><tspan x="275.61" y="43.2">ti</tspan><tspan class="cls-22" x="300.99" y="43.2">r</tspan><tspan x="313.92" y="43.2">ely on changing the </tspan><tspan class="cls-26" x="670.82" y="43.2">z</tspan><tspan x="688.89" y="43.2">oning code </tspan><tspan class="cls-16" x="893.98" y="43.2">t</tspan><tspan x="909.89" y="43.2">o e</tspan><tspan class="cls-30" x="962.7" y="43.2">n</tspan><tspan class="cls-4" x="984.27" y="43.2">tice pri</tspan><tspan class="cls-31" x="1107.31" y="43.2">v</tspan><tspan class="cls-37" x="1126.14" y="43.2">a</tspan><tspan class="cls-22" x="1145.69" y="43.2">t</tspan><tspan x="1161.6" y="43.2">e </tspan></tspan><tspan class="cls-7"><tspan x="0" y="86.4">d</tspan><tspan class="cls-20" x="23.18" y="86.4">ev</tspan><tspan class="cls-3" x="62.46" y="86.4">elopme</tspan><tspan class="cls-33" x="190.3" y="86.4">n</tspan><tspan x="211.86" y="86.4">t</tspan><tspan class="cls-41" x="228.42" y="86.4" xml:space="preserve"> –</tspan><tspan x="257.44" y="86.4" xml:space="preserve"> with </tspan><tspan class="cls-17" x="352.22" y="86.4">r</tspan><tspan class="cls-5" x="365.15" y="86.4">esults th</tspan><tspan class="cls-36" x="519.69" y="86.4">a</tspan><tspan x="539.24" y="86.4">t can </tspan><tspan class="cls-47" x="638.6" y="86.4">f</tspan><tspan x="654.19" y="86.4">all short </tspan><tspan class="cls-20" x="804.45" y="86.4">o</tspan><tspan x="825.98" y="86.4">f the big p</tspan><tspan class="cls-22" x="1007.88" y="86.4">r</tspan><tspan x="1020.81" y="86.4">omises</tspan><tspan class="cls-39" x="1142.09" y="86.4">.</tspan><tspan class="cls-29" x="1150.01" y="86.4"> </tspan><tspan x="1158.79" y="86.4">And the </tspan></tspan><tspan class="cls-7"><tspan x="0" y="129.6">housing th</tspan><tspan class="cls-36" x="187.2" y="129.6">a</tspan><tspan x="206.75" y="129.6">t does g</tspan><tspan class="cls-20" x="350.64" y="129.6">e</tspan><tspan x="371.23" y="129.6">t built is </tspan><tspan class="cls-20" x="522.75" y="129.6">o</tspan><tspan class="cls-25" x="544.28" y="129.6">f</tspan><tspan class="cls-22" x="559.58" y="129.6">t</tspan><tspan x="575.49" y="129.6">en out </tspan><tspan class="cls-20" x="698.21" y="129.6">o</tspan><tspan x="719.74" y="129.6">f </tspan><tspan class="cls-22" x="744.9" y="129.6">r</tspan><tspan x="757.83" y="129.6">e</tspan><tspan class="cls-34" x="779.14" y="129.6">a</tspan><tspan x="799.34" y="129.6">ch </tspan><tspan class="cls-13" x="852.18" y="129.6">f</tspan><tspan x="867.23" y="129.6">or the </tspan><tspan class="cls-46" x="981.49" y="129.6">w</tspan><tspan x="1009.97" y="129.6">orking cl</tspan><tspan class="cls-44" x="1158.76" y="129.6">a</tspan><tspan x="1179.31" y="129.6">ss who </tspan></tspan><tspan class="cls-7"><tspan x="0" y="172.8">need it the mo</tspan><tspan class="cls-45" x="254.16" y="172.8">s</tspan><tspan x="272.73" y="172.8">t</tspan><tspan class="cls-39" x="289.29" y="172.8">.</tspan><tspan class="cls-29" x="297.21" y="172.8"> </tspan><tspan x="306" y="172.8">As M</tspan><tspan class="cls-28" x="388.04" y="172.8">a</tspan><tspan x="408.27" y="172.8">yo</tspan><tspan class="cls-10" x="452.55" y="172.8">r</tspan><tspan class="cls-38" x="463.82" y="172.8">,</tspan><tspan class="cls-5" x="471.67" y="172.8"> </tspan><tspan class="cls-21" x="480.92" y="172.8">Z</tspan><tspan x="501.15" y="172.8">oh</tspan><tspan class="cls-23" x="545.47" y="172.8">r</tspan><tspan x="558.43" y="172.8">an will put our public dolla</tspan><tspan class="cls-46" x="1013.72" y="172.8">r</tspan><tspan x="1026.93" y="172.8">s </tspan><tspan class="cls-22" x="1055.15" y="172.8">t</tspan><tspan x="1071.06" y="172.8">o </tspan><tspan class="cls-50" x="1102.56" y="172.8">w</tspan><tspan x="1131.04" y="172.8">ork and </tspan></tspan><tspan class="cls-7"><tspan x="0" y="216">triple the City</tspan><tspan class="cls-43" x="241.23" y="216">&apos;</tspan><tspan x="250.12" y="216">s p</tspan><tspan class="cls-22" x="301.53" y="216">r</tspan><tspan x="314.46" y="216">odu</tspan><tspan class="cls-20" x="381.92" y="216">c</tspan><tspan x="402.73" y="216">tion </tspan><tspan class="cls-20" x="481.67" y="216">o</tspan><tspan x="503.2" y="216">f permane</tspan><tspan class="cls-34" x="681.47" y="216">n</tspan><tspan x="703.04" y="216">tly </tspan><tspan class="cls-37" x="759.7" y="216">a</tspan><tspan class="cls-13" x="779.25" y="216">ff</tspan><tspan x="805.85" y="216">o</tspan><tspan class="cls-22" x="828.1" y="216">r</tspan><tspan x="841.03" y="216">dabl</tspan><tspan class="cls-51" x="916.91" y="216">e</tspan><tspan class="cls-39" x="937.97" y="216">,</tspan><tspan x="945.82" y="216" xml:space="preserve"> union-built</tspan><tspan class="cls-39" x="1148.1" y="216">,</tspan><tspan x="1155.95" y="216"> </tspan></tspan><tspan class="cls-7"><tspan class="cls-22" x="0" y="259.2">r</tspan><tspan x="12.92" y="259.2">e</tspan><tspan class="cls-34" x="34.24" y="259.2">n</tspan><tspan class="cls-32" x="55.8" y="259.2">t</tspan><tspan x="71.78" y="259.2">-</tspan><tspan class="cls-45" x="88.16" y="259.2">s</tspan><tspan class="cls-57" x="106.74" y="259.2">t</tspan><tspan class="cls-3" x="123.19" y="259.2">abili</tspan><tspan class="cls-26" x="193.53" y="259.2">z</tspan><tspan x="211.61" y="259.2">ed homes</tspan><tspan class="cls-41" x="380.91" y="259.2" xml:space="preserve"> –</tspan><tspan x="409.93" y="259.2" xml:space="preserve"> con</tspan><tspan class="cls-45" x="485.02" y="259.2">s</tspan><tspan x="503.6" y="259.2">tru</tspan><tspan class="cls-20" x="555.76" y="259.2">c</tspan><tspan x="576.57" y="259.2">ting 20</tspan><tspan class="cls-31" x="701.17" y="259.2">0,</tspan><tspan x="732.13" y="259.2">000 n</tspan><tspan class="cls-46" x="832.68" y="259.2">e</tspan><tspan x="853.63" y="259.2">w units </tspan><tspan class="cls-20" x="989.42" y="259.2">ov</tspan><tspan x="1029.63" y="259.2">er the n</tspan><tspan class="cls-39" x="1165.02" y="259.2">e</tspan><tspan x="1185.15" y="259.2">xt 10 </tspan></tspan><tspan class="cls-7"><tspan x="0" y="302.4">yea</tspan><tspan class="cls-49" x="64.04" y="302.4">r</tspan><tspan x="77.26" y="302.4">s</tspan><tspan class="cls-39" x="96.23" y="302.4">.</tspan><tspan class="cls-29" x="104.15" y="302.4"> </tspan><tspan x="112.93" y="302.4">A</tspan><tspan class="cls-54" x="135.61" y="302.4">n</tspan><tspan x="157.39" y="302.4">y 100% </tspan><tspan class="cls-36" x="286.92" y="302.4">a</tspan><tspan class="cls-14" x="306.46" y="302.4">ff</tspan><tspan x="333.07" y="302.4">o</tspan><tspan class="cls-22" x="355.32" y="302.4">r</tspan><tspan x="368.24" y="302.4">dable d</tspan><tspan class="cls-20" x="497.88" y="302.4">ev</tspan><tspan class="cls-5" x="537.15" y="302.4">elopme</tspan><tspan class="cls-34" x="664.99" y="302.4">n</tspan><tspan x="686.55" y="302.4">t g</tspan><tspan class="cls-19" x="735.47" y="302.4">e</tspan><tspan x="756.07" y="302.4">ts </tspan><tspan class="cls-48" x="800.85" y="302.4">f</tspan><tspan class="cls-44" x="816.44" y="302.4">a</tspan><tspan class="cls-45" x="836.99" y="302.4">s</tspan><tspan class="cls-31" x="855.57" y="302.4">t</tspan><tspan class="cls-15" x="871.55" y="302.4">-</tspan><tspan x="886.96" y="302.4">t</tspan><tspan class="cls-24" x="903.52" y="302.4">r</tspan><tspan class="cls-34" x="916.48" y="302.4">a</tspan><tspan x="936.68" y="302.4">c</tspan><tspan class="cls-40" x="958.21" y="302.4">k</tspan><tspan x="976.64" y="302.4">ed: no mo</tspan><tspan class="cls-22" x="1146.27" y="302.4">r</tspan><tspan x="1159.19" y="302.4">e poi</tspan><tspan class="cls-34" x="1244.01" y="302.4">n</tspan><tspan x="1265.57" y="302.4">tless </tspan></tspan><tspan class="cls-7"><tspan x="0" y="345.6">del</tspan><tspan class="cls-28" x="53.32" y="345.6">a</tspan><tspan x="73.55" y="345.6">ys</tspan><tspan class="cls-38" x="114.55" y="345.6">.</tspan><tspan class="cls-28" x="122.47" y="345.6"> </tspan><tspan x="131.26" y="345.6">And </tspan><tspan class="cls-21" x="208.44" y="345.6">Z</tspan><tspan x="228.67" y="345.6">oh</tspan><tspan class="cls-25" x="272.99" y="345.6">r</tspan><tspan x="285.95" y="345.6">an will fully </tspan><tspan class="cls-45" x="489.38" y="345.6">s</tspan><tspan class="cls-56" x="507.96" y="345.6">t</tspan><tspan class="cls-36" x="524.41" y="345.6">a</tspan><tspan x="543.95" y="345.6">ff our City</tspan><tspan class="cls-44" x="718.3" y="345.6">&apos;</tspan><tspan x="727.19" y="345.6">s housing </tspan><tspan class="cls-34" x="903.99" y="345.6">a</tspan><tspan x="924.18" y="345.6">gencies so </tspan><tspan class="cls-50" x="1121.03" y="345.6">w</tspan><tspan class="cls-4" x="1149.51" y="345.6">e can </tspan></tspan><tspan class="cls-7"><tspan class="cls-34" x="0" y="388.8">a</tspan><tspan class="cls-18" x="20.2" y="388.8">c</tspan><tspan x="41" y="388.8">tually g</tspan><tspan class="cls-20" x="172.33" y="388.8">e</tspan><tspan x="192.92" y="388.8">t the </tspan><tspan class="cls-49" x="287.92" y="388.8">w</tspan><tspan x="316.4" y="388.8">ork don</tspan><tspan class="cls-53" x="448.34" y="388.8">e</tspan><tspan class="cls-38" x="469.4" y="388.8">.</tspan><tspan class="cls-5" x="477.32" y="388.8"> </tspan><tspan class="cls-42" x="486.57" y="388.8">F</tspan><tspan x="505.8" y="388.8">or the </tspan><tspan class="cls-33" x="620.06" y="388.8">a</tspan><tspan class="cls-3" x="640.25" y="388.8">dditional housing </tspan><tspan class="cls-50" x="952.48" y="388.8">w</tspan><tspan x="980.95" y="388.8">e need</tspan><tspan class="cls-39" x="1099.39" y="388.8">,</tspan><tspan x="1107.24" y="388.8"> </tspan><tspan class="cls-21" x="1116.49" y="388.8">Z</tspan><tspan x="1136.72" y="388.8">oh</tspan><tspan class="cls-23" x="1181.04" y="388.8">r</tspan><tspan x="1194" y="388.8">an will </tspan></tspan><tspan class="cls-7"><tspan x="0" y="432">initi</tspan><tspan class="cls-36" x="65.09" y="432">a</tspan><tspan class="cls-17" x="84.63" y="432">t</tspan><tspan class="cls-5" x="100.55" y="432">e a Comp</tspan><tspan class="cls-17" x="260.56" y="432">r</tspan><tspan x="273.49" y="432">ehensi</tspan><tspan class="cls-20" x="388.04" y="432">v</tspan><tspan x="406.72" y="432">e Plan </tspan><tspan class="cls-13" x="519.76" y="432">f</tspan><tspan x="534.81" y="432">or N</tspan><tspan class="cls-49" x="603.78" y="432">e</tspan><tspan class="cls-5" x="624.74" y="432">w</tspan><tspan class="cls-29" x="653.57" y="432"> </tspan><tspan class="cls-8" x="662.36" y="432">Y</tspan><tspan x="681.19" y="432">ork City </tspan><tspan class="cls-22" x="825.4" y="432">t</tspan><tspan x="841.31" y="432">o c</tspan><tspan class="cls-22" x="894.34" y="432">r</tspan><tspan x="907.27" y="432">e</tspan><tspan class="cls-37" x="928.58" y="432">a</tspan><tspan class="cls-22" x="948.13" y="432">t</tspan><tspan x="964.04" y="432">e a holi</tspan><tspan class="cls-45" x="1086.51" y="432">s</tspan><tspan x="1105.08" y="432">tic vision </tspan><tspan class="cls-13" x="1270.82" y="432">f</tspan><tspan x="1285.87" y="432">or </tspan></tspan><tspan class="cls-7"><tspan class="cls-36" x="0" y="475.2">a</tspan><tspan class="cls-14" x="19.55" y="475.2">ff</tspan><tspan x="46.15" y="475.2">o</tspan><tspan class="cls-22" x="68.4" y="475.2">r</tspan><tspan x="81.32" y="475.2">dability</tspan><tspan class="cls-39" x="213.44" y="475.2">,</tspan><tspan x="221.29" y="475.2" xml:space="preserve"> equity</tspan><tspan class="cls-38" x="344.48" y="475.2">,</tspan><tspan class="cls-5" x="352.33" y="475.2" xml:space="preserve"> and g</tspan><tspan class="cls-22" x="459.9" y="475.2">r</tspan><tspan class="cls-49" x="472.82" y="475.2">o</tspan><tspan x="494.71" y="475.2">wth</tspan><tspan class="cls-39" x="562.17" y="475.2">.</tspan><tspan class="cls-40" x="570.09" y="475.2"> </tspan><tspan x="578.41" y="475.2">This planning will all</tspan><tspan class="cls-50" x="921.67" y="475.2">o</tspan><tspan x="943.55" y="475.2">w N</tspan><tspan class="cls-15" x="1005.55" y="475.2">Y</tspan><tspan x="1026.53" y="475.2">C </tspan><tspan class="cls-16" x="1058.9" y="475.2">t</tspan><tspan x="1074.81" y="475.2">o </tspan><tspan class="cls-30" x="1106.31" y="475.2">a</tspan><tspan x="1126.51" y="475.2">dd</tspan><tspan class="cls-16" x="1172.87" y="475.2">r</tspan><tspan x="1185.8" y="475.2">ess the </tspan></tspan><tspan class="cls-7"><tspan x="0" y="518.4">leg</tspan><tspan class="cls-34" x="53.24" y="518.4">a</tspan><tspan x="73.44" y="518.4">cy </tspan><tspan class="cls-18" x="126.25" y="518.4">o</tspan><tspan x="147.78" y="518.4">f </tspan><tspan class="cls-23" x="172.94" y="518.4">r</tspan><tspan class="cls-33" x="185.9" y="518.4">a</tspan><tspan x="206.1" y="518.4">cially discrimin</tspan><tspan class="cls-36" x="462.81" y="518.4">a</tspan><tspan class="cls-17" x="482.36" y="518.4">t</tspan><tspan x="498.27" y="518.4">ory </tspan><tspan class="cls-26" x="565.37" y="518.4">z</tspan><tspan x="583.45" y="518.4">oning</tspan><tspan class="cls-39" x="681.76" y="518.4">,</tspan><tspan x="689.61" y="518.4" xml:space="preserve"> inc</tspan><tspan class="cls-22" x="751.28" y="518.4">r</tspan><tspan class="cls-4" x="764.2" y="518.4">e</tspan><tspan class="cls-44" x="785.51" y="518.4">a</tspan><tspan x="806.07" y="518.4">se density near t</tspan><tspan class="cls-23" x="1101.27" y="518.4">r</tspan><tspan class="cls-6" x="1114.23" y="518.4">ansit </tspan><tspan class="cls-55" x="1210.6" y="518.4">h</tspan><tspan x="1232.38" y="518.4">ubs</tspan><tspan class="cls-39" x="1296.56" y="518.4">,</tspan><tspan x="1304.41" y="518.4"> </tspan></tspan><tspan class="cls-7"><tspan x="0" y="561.6">end the </tspan><tspan class="cls-22" x="145.01" y="561.6">r</tspan><tspan x="157.93" y="561.6">equi</tspan><tspan class="cls-17" x="233.28" y="561.6">r</tspan><tspan x="246.2" y="561.6">eme</tspan><tspan class="cls-33" x="319.79" y="561.6">n</tspan><tspan x="341.35" y="561.6">t </tspan><tspan class="cls-17" x="367.16" y="561.6">t</tspan><tspan x="383.07" y="561.6">o build parking l</tspan><tspan class="cls-20" x="658.76" y="561.6">o</tspan><tspan x="680.29" y="561.6">ts and p</tspan><tspan class="cls-22" x="823.46" y="561.6">r</tspan><tspan x="836.38" y="561.6">o</tspan><tspan class="cls-34" x="858.63" y="561.6">a</tspan><tspan class="cls-20" x="878.83" y="561.6">c</tspan><tspan x="899.63" y="561.6">ti</tspan><tspan class="cls-20" x="925.01" y="561.6">v</tspan><tspan x="943.7" y="561.6">ely chart our futu</tspan><tspan class="cls-22" x="1252.43" y="561.6">r</tspan><tspan class="cls-51" x="1265.36" y="561.6">e</tspan><tspan class="cls-39" x="1286.42" y="561.6">.</tspan></tspan><tspan class="cls-2"><tspan class="cls-26" x="871.94" y="648">z</tspan><tspan x="890.02" y="648">oh</tspan><tspan class="cls-23" x="934.33" y="648">r</tspan><tspan x="947.29" y="648">a</tspan><tspan class="cls-34" x="967.99" y="648">n</tspan><tspan class="cls-13" x="989.56" y="648">f</tspan><tspan x="1004.6" y="648">or</tspan><tspan class="cls-55" x="1040.42" y="648">n</tspan><tspan x="1062.2" y="648">y</tspan><tspan class="cls-52" x="1084.24" y="648">c.</tspan><tspan x="1114.37" y="648">com/pl</tspan><tspan class="cls-37" x="1234.43" y="648">a</tspan><tspan class="cls-35" x="1253.98" y="648">t</tspan><tspan class="cls-12" x="1269.46" y="648">f</tspan><tspan x="1284.5" y="648">orm</tspan></tspan></text>
  <text class="cls-1" transform="translate(30.67 425)"><tspan x="0" y="0">“</tspan></text>
</svg>